<svg width="156" height="32" viewBox="0 0 156 32" fill="none" xmlns="http://www.w3.org/2000/svg">
<path d="M145.711 26.32C144.191 26.32 142.804 26.0635 141.55 25.5505C140.296 25.0374 139.203 24.3154 138.272 23.3843C137.341 22.4533 136.619 21.3607 136.106 20.1067C135.593 18.8526 135.336 17.475 135.336 15.9739C135.336 14.4729 135.593 13.0953 136.106 11.8412C136.619 10.5872 137.341 9.4946 138.272 8.56355C139.203 7.6325 140.296 6.91046 141.55 6.39743C142.804 5.88441 144.181 5.62789 145.682 5.62789C147.184 5.62789 148.561 5.88441 149.815 6.39743C151.069 6.91046 152.162 7.6325 153.093 8.56355C154.024 9.4946 154.736 10.5872 155.23 11.8412C155.743 13.0953 156 14.4729 156 15.9739C156 17.456 155.743 18.8336 155.23 20.1067C154.736 21.3607 154.024 22.4533 153.093 23.3843C152.162 24.3154 151.069 25.0374 149.815 25.5505C148.561 26.0635 147.193 26.32 145.711 26.32ZM145.682 21.7598C146.461 21.7598 147.174 21.6172 147.82 21.3322C148.485 21.0472 149.055 20.6482 149.53 20.1352C150.024 19.6031 150.404 18.9856 150.67 18.2826C150.936 17.5795 151.069 16.81 151.069 15.9739C151.069 15.1379 150.936 14.3684 150.67 13.6653C150.404 12.9623 150.024 12.3542 149.53 11.8412C149.055 11.3092 148.485 10.9007 147.82 10.6157C147.174 10.3306 146.461 10.1881 145.682 10.1881C144.903 10.1881 144.181 10.3306 143.516 10.6157C142.87 10.9007 142.3 11.3092 141.806 11.8412C141.312 12.3542 140.932 12.9623 140.666 13.6653C140.419 14.3684 140.296 15.1379 140.296 15.9739C140.296 16.81 140.419 17.589 140.666 18.3111C140.932 19.0141 141.312 19.6221 141.806 20.1352C142.3 20.6482 142.87 21.0472 143.516 21.3322C144.181 21.6172 144.903 21.7598 145.682 21.7598Z" fill="#E3E3E3"/>
<path d="M126.777 26.035V6.08392H131.623V26.035H126.777ZM114.408 26.035V6.08392H119.253V26.035H114.408ZM116.289 18.2541L116.317 13.9218H129.343V18.2541H116.289Z" fill="#E3E3E3"/>
<path d="M103.682 26.32C102.181 26.32 100.794 26.073 99.5204 25.579C98.2664 25.0659 97.1738 24.3534 96.2428 23.4413C95.3117 22.5103 94.5897 21.4177 94.0767 20.1637C93.5826 18.8906 93.3356 17.494 93.3356 15.9739C93.3356 14.4919 93.6016 13.1238 94.1337 11.8697C94.6657 10.6157 95.3972 9.5326 96.3283 8.62056C97.2783 7.68951 98.3899 6.96747 99.663 6.45444C100.955 5.94141 102.361 5.6849 103.881 5.6849C104.831 5.6849 105.762 5.80841 106.674 6.05542C107.586 6.30243 108.432 6.67295 109.211 7.16698C110.009 7.642 110.693 8.21203 111.263 8.87707L108.299 12.2687C107.9 11.8507 107.472 11.4897 107.016 11.1857C106.579 10.8627 106.095 10.6157 105.563 10.4447C105.031 10.2736 104.461 10.1881 103.853 10.1881C103.093 10.1881 102.371 10.3306 101.687 10.6157C101.022 10.8817 100.432 11.2712 99.9195 11.7842C99.4254 12.2783 99.0359 12.8863 98.7509 13.6083C98.4659 14.3304 98.3234 15.1379 98.3234 16.031C98.3234 16.905 98.4659 17.703 98.7509 18.4251C99.0359 19.1281 99.4349 19.7361 99.948 20.2492C100.461 20.7622 101.079 21.1517 101.801 21.4177C102.542 21.6838 103.359 21.8168 104.252 21.8168C104.86 21.8168 105.439 21.7313 105.99 21.5602C106.541 21.3892 107.045 21.1612 107.501 20.8762C107.976 20.5722 108.394 20.2302 108.755 19.8502L111.092 23.5554C110.617 24.0874 109.98 24.5624 109.182 24.9804C108.403 25.3985 107.529 25.731 106.56 25.978C105.61 26.206 104.651 26.32 103.682 26.32Z" fill="#E3E3E3"/>
<path d="M81.137 26.035V10.3592H75.2087V6.08392H92.0531V10.3592H85.9822V26.035H81.137Z" fill="#E3E3E3"/>
<path d="M58.4346 26.035V6.08392H72.3434V10.2166H63.1374V21.9023H72.6284V26.035H58.4346ZM60.7147 17.8551V13.9218H71.0608V17.8551H60.7147Z" fill="#E3E3E3"/>
<path d="M40.816 26.035V6.08392H45.6613V26.035H40.816ZM43.0676 18.3966V14.3494H53.3852V18.3966H43.0676ZM43.0676 10.3592V6.08392H54.5537V10.3592H43.0676Z" fill="#E3E3E3"/>
<path d="M29.25 13.9063C29.25 14.5552 29.0576 15.1896 28.697 15.7292C28.3365 16.2688 27.824 16.6894 27.2244 16.9377C26.6249 17.1861 25.9651 17.2511 25.3286 17.1245C24.6921 16.9978 24.1074 16.6853 23.6486 16.2264C23.1897 15.7676 22.8772 15.1829 22.7505 14.5464C22.6239 13.9099 22.6889 13.2501 22.9373 12.6506C23.1856 12.051 23.6062 11.5385 24.1458 11.178C24.6854 10.8174 25.3198 10.625 25.9688 10.625C26.839 10.625 27.6736 10.9707 28.2889 11.5861C28.9043 12.2014 29.25 13.036 29.25 13.9063ZM9.5625 13.9063C9.5625 13.2573 9.37006 12.6229 9.00951 12.0833C8.64896 11.5437 8.1365 11.1231 7.53693 10.8748C6.93736 10.6264 6.27761 10.5614 5.64111 10.688C5.00461 10.8147 4.41995 11.1272 3.96106 11.5861C3.50217 12.0449 3.18966 12.6296 3.06305 13.2661C2.93644 13.9026 3.00142 14.5624 3.24977 15.1619C3.49812 15.7615 3.91869 16.274 4.45829 16.6345C4.99789 16.9951 5.63228 17.1875 6.28125 17.1875C7.15149 17.1875 7.98609 16.8418 8.60145 16.2264C9.2168 15.6111 9.5625 14.7765 9.5625 13.9063ZM11.9063 11.5625C12.5552 11.5625 13.1896 11.3701 13.7292 11.0095C14.2688 10.649 14.6894 10.1365 14.9377 9.53693C15.1861 8.93736 15.2511 8.27761 15.1245 7.64111C14.9978 7.00461 14.6853 6.41995 14.2264 5.96106C13.7676 5.50217 13.1829 5.18966 12.5464 5.06305C11.9099 4.93644 11.2501 5.00142 10.6506 5.24977C10.051 5.49812 9.53854 5.91869 9.17799 6.45829C8.81744 6.99789 8.625 7.63228 8.625 8.28125C8.625 9.15149 8.9707 9.98609 9.58606 10.6014C10.2014 11.2168 11.036 11.5625 11.9063 11.5625ZM20.3438 11.5625C20.9927 11.5625 21.6271 11.3701 22.1667 11.0095C22.7063 10.649 23.1269 10.1365 23.3752 9.53693C23.6236 8.93736 23.6886 8.27761 23.562 7.64111C23.4353 7.00461 23.1228 6.41995 22.6639 5.96106C22.2051 5.50217 21.6204 5.18966 20.9839 5.06305C20.3474 4.93644 19.6876 5.00142 19.0881 5.24977C18.4885 5.49812 17.976 5.91869 17.6155 6.45829C17.2549 6.99789 17.0625 7.63228 17.0625 8.28125C17.0625 9.15149 17.4082 9.98609 18.0236 10.6014C18.6389 11.2168 19.4735 11.5625 20.3438 11.5625ZM23.0531 18.6945C22.5769 18.4318 22.1572 18.0778 21.818 17.6527C21.4788 17.2276 21.2267 16.7398 21.0762 16.2172C20.7645 15.1452 20.1133 14.2034 19.2204 13.5332C18.3276 12.863 17.2414 12.5007 16.125 12.5007C15.0086 12.5007 13.9224 12.863 13.0296 13.5332C12.1367 14.2034 11.4855 15.1452 11.1738 16.2172C10.8727 17.2688 10.1668 18.158 9.21094 18.6898C8.29397 19.186 7.56859 19.9737 7.14953 20.9284C6.73046 21.8831 6.64164 22.9502 6.8971 23.961C7.15256 24.9719 7.73773 25.8687 8.56005 26.5096C9.38237 27.1506 10.3949 27.4991 11.4375 27.5C12.0623 27.5018 12.681 27.377 13.2563 27.1332C15.0903 26.3768 17.1491 26.3768 18.9832 27.1332C20.0941 27.6163 21.3489 27.6507 22.4845 27.229C23.6201 26.8073 24.5484 25.9623 25.0747 24.8712C25.601 23.7801 25.6845 22.5276 25.3076 21.3763C24.9307 20.225 24.1228 19.2644 23.0531 18.6957V18.6945Z" fill="#34C759"/>
</svg>
