<svg width="32" height="32" viewBox="0 0 32 32" fill="none" xmlns="http://www.w3.org/2000/svg">
<path d="M29.25 13.9063C29.25 14.5552 29.0576 15.1896 28.697 15.7292C28.3365 16.2688 27.824 16.6894 27.2244 16.9377C26.6249 17.1861 25.9651 17.2511 25.3286 17.1245C24.6921 16.9978 24.1074 16.6853 23.6486 16.2264C23.1897 15.7676 22.8772 15.1829 22.7505 14.5464C22.6239 13.9099 22.6889 13.2501 22.9373 12.6506C23.1856 12.051 23.6062 11.5385 24.1458 11.178C24.6854 10.8174 25.3198 10.625 25.9688 10.625C26.839 10.625 27.6736 10.9707 28.2889 11.5861C28.9043 12.2014 29.25 13.036 29.25 13.9063ZM9.5625 13.9063C9.5625 13.2573 9.37006 12.6229 9.00951 12.0833C8.64896 11.5437 8.1365 11.1231 7.53693 10.8748C6.93736 10.6264 6.27761 10.5614 5.64111 10.688C5.00461 10.8147 4.41995 11.1272 3.96106 11.5861C3.50217 12.0449 3.18966 12.6296 3.06305 13.2661C2.93644 13.9026 3.00142 14.5624 3.24977 15.1619C3.49812 15.7615 3.91869 16.274 4.45829 16.6345C4.99789 16.9951 5.63228 17.1875 6.28125 17.1875C7.15149 17.1875 7.98609 16.8418 8.60145 16.2264C9.2168 15.6111 9.5625 14.7765 9.5625 13.9063ZM11.9063 11.5625C12.5552 11.5625 13.1896 11.3701 13.7292 11.0095C14.2688 10.649 14.6894 10.1365 14.9377 9.53693C15.1861 8.93736 15.2511 8.27761 15.1245 7.64111C14.9978 7.00461 14.6853 6.41995 14.2264 5.96106C13.7676 5.50217 13.1829 5.18966 12.5464 5.06305C11.9099 4.93644 11.2501 5.00142 10.6506 5.24977C10.051 5.49812 9.53854 5.91869 9.17799 6.45829C8.81744 6.99789 8.625 7.63228 8.625 8.28125C8.625 9.15149 8.9707 9.98609 9.58606 10.6014C10.2014 11.2168 11.036 11.5625 11.9063 11.5625ZM20.3438 11.5625C20.9927 11.5625 21.6271 11.3701 22.1667 11.0095C22.7063 10.649 23.1269 10.1365 23.3752 9.53693C23.6236 8.93736 23.6886 8.27761 23.562 7.64111C23.4353 7.00461 23.1228 6.41995 22.6639 5.96106C22.2051 5.50217 21.6204 5.18966 20.9839 5.06305C20.3474 4.93644 19.6876 5.00142 19.0881 5.24977C18.4885 5.49812 17.976 5.91869 17.6155 6.45829C17.2549 6.99789 17.0625 7.63228 17.0625 8.28125C17.0625 9.15149 17.4082 9.98609 18.0236 10.6014C18.6389 11.2168 19.4735 11.5625 20.3438 11.5625ZM23.0531 18.6945C22.5769 18.4318 22.1572 18.0778 21.818 17.6527C21.4788 17.2276 21.2267 16.7398 21.0762 16.2172C20.7645 15.1452 20.1133 14.2034 19.2204 13.5332C18.3276 12.863 17.2414 12.5007 16.125 12.5007C15.0086 12.5007 13.9224 12.863 13.0296 13.5332C12.1367 14.2034 11.4855 15.1452 11.1738 16.2172C10.8727 17.2688 10.1668 18.158 9.21094 18.6898C8.29397 19.186 7.56859 19.9737 7.14953 20.9284C6.73046 21.8831 6.64164 22.9502 6.8971 23.961C7.15256 24.9719 7.73773 25.8687 8.56005 26.5096C9.38237 27.1506 10.3949 27.4991 11.4375 27.5C12.0623 27.5018 12.681 27.377 13.2563 27.1332C15.0903 26.3768 17.1491 26.3768 18.9832 27.1332C20.0941 27.6163 21.3489 27.6507 22.4845 27.229C23.6201 26.8073 24.5484 25.9623 25.0747 24.8712C25.601 23.7801 25.6845 22.5276 25.3076 21.3763C24.9307 20.225 24.1228 19.2644 23.0531 18.6957V18.6945Z" fill="#34C759"/>
</svg>
